<?xml version="1.0" encoding="UTF-8" standalone="no"?>
<svg
   xmlns:dc="http://purl.org/dc/elements/1.1/"
   xmlns:cc="http://creativecommons.org/ns#"
   xmlns:rdf="http://www.w3.org/1999/02/22-rdf-syntax-ns#"
   xmlns:svg="http://www.w3.org/2000/svg"
   xmlns="http://www.w3.org/2000/svg"
   id="svg16"
   version="1.1"
   viewBox="0 0 16.933334 16.933333"
   height="48pt"
   width="48pt">
  <defs
     id="defs10" />
  <metadata
     id="metadata13">
    <rdf:RDF>
      <cc:Work
         rdf:about="">
        <dc:format>image/svg+xml</dc:format>
        <dc:type
           rdf:resource="http://purl.org/dc/dcmitype/StillImage" />
        <dc:title></dc:title>
      </cc:Work>
    </rdf:RDF>
  </metadata>
  <g
     id="layer1">
    <ellipse
       style="stroke-width:0.264583;fill:#1bb76e;fill-opacity:1"
       ry="1.4111111"
       rx="1.4111112"
       cy="3.5277781"
       cx="8.4666672"
       id="path30" />
    <ellipse
       r="3.175"
       style="stroke-width:0.261874"
       cy="9.5249996"
       cx="9.5249996"
       id="path40" />
    <path
       transform="scale(0.26458334)"
       d="M 42.666016 37.332031 A 5.3333338 5.3333338 0 0 1 37.333984 42.666016 L 24 42.666016 A 2.6666667 2.6666667 0 0 0 21.333984 45.333984 A 2.6666667 2.6666667 0 0 0 24 48 L 37.333984 48 A 10.666666 10.666666 0 0 0 48 37.332031 L 42.666016 37.332031 z "
       style="stroke-width:0.722162"
       id="rect47" />
  </g>
  <g
     id="layer2">
    <path
       transform="scale(0.26458334)"
       d="M 32 24 A 5.3333336 5.3333332 0 0 0 26.666016 29.333984 L 26.666016 50.666016 A 5.3333336 5.3333332 0 0 0 32 56 A 5.3333336 5.3333332 0 0 0 37.333984 50.666016 L 37.333984 29.333984 A 5.3333336 5.3333332 0 0 0 32 24 z "
       style="stroke-width:0.950158;fill:#666666;fill-opacity:1"
       id="rect18" />
    <path
       transform="scale(0.26458334)"
       d="M 21.333984 26.666016 L 21.333984 32 L 24 32 L 37.333984 32 A 5.3333339 5.3333339 0 0 1 42.666016 37.332031 L 48 37.332031 A 10.666666 10.666666 0 0 0 37.333984 26.666016 L 24 26.666016 L 21.333984 26.666016 z "
       style="fill:#000000;fill-opacity:1;stroke-width:1.03059"
       id="rect1051" />
  </g>
  <g
     id="layer3">
    <path
       d="M 5.6444445,5.6444445 3.5277778,7.7611112 5.6444445,9.8777779 V 8.4664946 7.0552113 Z"
       style="stroke-width:0.191072"
       id="path1042" />
  </g>
</svg>
